<?xml version="1.0" standalone="no"?>
<!DOCTYPE svg PUBLIC "-//W3C//DTD SVG 20010904//EN"
 "http://www.w3.org/TR/2001/REC-SVG-20010904/DTD/svg10.dtd">
<svg version="1.0" xmlns="http://www.w3.org/2000/svg"
 width="256.000000pt" height="256.000000pt" viewBox="0 0 256.000000 256.000000"
 preserveAspectRatio="xMidYMid meet">
<metadata>
Created by potrace 1.14, written by Peter Selinger 2001-2017
</metadata>
<g transform="translate(0.000000,256.000000) scale(0.100000,-0.100000)"
fill="#000000" stroke="none">
<path d="M0 1280 l0 -1280 1280 0 1280 0 0 1280 0 1280 -1280 0 -1280 0 0
-1280z m1975 685 c84 -18 156 -53 216 -105 l44 -39 -67 -68 -68 -67 -32 31
c-60 56 -114 77 -203 77 -128 1 -216 -51 -273 -159 -22 -42 -26 -63 -27 -135
0 -74 4 -93 28 -142 52 -106 149 -162 277 -161 75 1 139 25 193 73 l37 32 65
-58 c36 -32 65 -61 65 -65 0 -13 -89 -88 -129 -108 -96 -50 -285 -67 -396 -37
-137 37 -251 129 -312 253 -34 70 -37 82 -41 186 -4 96 -1 121 18 176 59 176
188 281 395 325 45 9 144 5 210 -9z m-975 -24 c128 -40 185 -108 185 -221 0
-53 -5 -74 -28 -112 -15 -26 -41 -57 -58 -69 l-32 -22 36 -18 c47 -25 94 -74
113 -118 19 -45 20 -148 1 -192 -20 -48 -84 -103 -153 -130 -57 -22 -72 -23
-371 -27 l-313 -4 0 466 0 466 279 0 c247 0 286 -2 341 -19z"/>
<path d="M590 1690 l0 -110 140 0 c152 0 195 10 224 51 23 34 21 100 -5 128
-33 36 -62 41 -215 41 l-144 0 0 -110z"/>
<path d="M590 1304 l0 -116 173 4 c188 4 218 11 243 59 19 37 18 89 -2 118
-30 43 -71 51 -249 51 l-165 0 0 -116z"/>
</g>
</svg>
